# xmcd
#
# Track frame offsets:
#	150
#	12021
#	25549
#	41364
#	54743
#	70011
#	84958
#	98753
#	112893
#	135380
#	157000
#	172747
#	186571
#	201337
#	219194
#	237606
#	261816
#
# Disc length: 4440 seconds
#
# Revision: 0
# Processed by: cddbd v1.5.1PL0 Copyright (c) Steve Scherf et al.
# Submitted via: audiograbber 1.83.01
#
DISCID=d7115611
DTITLE=Centre Of Music - Country Music Festival CD2
DYEAR=1900
DGENRE=Country
TTITLE0=Suzy Bogguss - Give Me Some Wheels
TTITLE1=Trace Adkins - Every Light In The House
TTITLE2=Lisa Brokop - West Of Crazy
TTITLE3=Asleep At The Wheel - Ain't Nobody Here But Us Chickens
TTITLE4=Deana Carter - I've Loved Enough To Know
TTITLE5=John Berry - You And Only You
TTITLE6=Cyndi Thomson - I Always Liked That Best
TTITLE7=Billy Dean - Billy The Kid
TTITLE8=Patty Loveless - How Can I Help You Say Goodbye
TTITLE9=Steve Wariner - Holes In The Floor Of Heaven
TTITLE10=Tanya Tucker - Fire To Fire (Duett With Willie Nelson)
TTITLE11=George Ducas - Teardrops
TTITLE12=Sherrié Austin - Jolene
TTITLE13=Chris LeDoux - Silence On The Line
TTITLE14=Shenandoah And Allison Krauss - Somewhere
TTITLE15=The Cactus Brothers - Sixteen Tons
TTITLE16=Daten - Daten-CD
EXTD=
EXTT0=
EXTT1=
EXTT2=
EXTT3=
EXTT4=
EXTT5=
EXTT6=
EXTT7=
EXTT8=
EXTT9=
EXTT10=
EXTT11=
EXTT12=
EXTT13=
EXTT14=
EXTT15=
EXTT16=
PLAYORDER=
